<mxfile host="app.diagrams.net" modified="2021-01-10T21:35:13.132Z" agent="5.0 (Windows NT 10.0; Win64; x64) AppleWebKit/537.36 (KHTML, like Gecko) Chrome/86.0.4240.75 Safari/537.36" etag="3PvJUeUtjpFONOHTddS4" version="14.1.9" type="github">
  <diagram id="MgfeNjyQLYg4qsUHsYTe" name="Page-1">
    <mxGraphModel dx="1422" dy="762" grid="1" gridSize="10" guides="1" tooltips="1" connect="1" arrows="1" fold="1" page="1" pageScale="1" pageWidth="850" pageHeight="1100" math="0" shadow="0">
      <root>
        <mxCell id="0" />
        <mxCell id="1" parent="0" />
        <mxCell id="Y7fOjw2keFnCLbam0W64-26" value="" style="rounded=1;whiteSpace=wrap;html=1;" vertex="1" parent="1">
          <mxGeometry x="645" y="155" width="275" height="165" as="geometry" />
        </mxCell>
        <mxCell id="Y7fOjw2keFnCLbam0W64-4" style="edgeStyle=orthogonalEdgeStyle;rounded=0;orthogonalLoop=1;jettySize=auto;html=1;entryX=0;entryY=0.5;entryDx=0;entryDy=0;entryPerimeter=0;" edge="1" parent="1" target="Y7fOjw2keFnCLbam0W64-2">
          <mxGeometry relative="1" as="geometry">
            <mxPoint x="120" y="225" as="sourcePoint" />
            <Array as="points">
              <mxPoint x="160" y="225" />
              <mxPoint x="160" y="185" />
            </Array>
          </mxGeometry>
        </mxCell>
        <mxCell id="Y7fOjw2keFnCLbam0W64-5" style="edgeStyle=orthogonalEdgeStyle;rounded=0;orthogonalLoop=1;jettySize=auto;html=1;" edge="1" parent="1" source="Y7fOjw2keFnCLbam0W64-1" target="Y7fOjw2keFnCLbam0W64-3">
          <mxGeometry relative="1" as="geometry" />
        </mxCell>
        <mxCell id="Y7fOjw2keFnCLbam0W64-1" value="Operations Manager" style="aspect=fixed;pointerEvents=1;shadow=0;dashed=0;html=1;strokeColor=none;labelPosition=center;verticalLabelPosition=bottom;verticalAlign=top;align=center;fillColor=#00188D;shape=mxgraph.azure.user" vertex="1" parent="1">
          <mxGeometry x="70" y="200" width="47" height="50" as="geometry" />
        </mxCell>
        <mxCell id="Y7fOjw2keFnCLbam0W64-7" style="edgeStyle=orthogonalEdgeStyle;rounded=0;orthogonalLoop=1;jettySize=auto;html=1;" edge="1" parent="1" source="Y7fOjw2keFnCLbam0W64-2" target="Y7fOjw2keFnCLbam0W64-6">
          <mxGeometry relative="1" as="geometry" />
        </mxCell>
        <mxCell id="Y7fOjw2keFnCLbam0W64-2" value="Mobile Device" style="pointerEvents=1;shadow=0;dashed=0;html=1;strokeColor=none;labelPosition=center;verticalLabelPosition=bottom;verticalAlign=top;align=center;fillColor=#505050;shape=mxgraph.mscae.intune.intune_mobile_application_management" vertex="1" parent="1">
          <mxGeometry x="209.5" y="160" width="49" height="50" as="geometry" />
        </mxCell>
        <mxCell id="Y7fOjw2keFnCLbam0W64-9" style="edgeStyle=orthogonalEdgeStyle;rounded=0;orthogonalLoop=1;jettySize=auto;html=1;" edge="1" parent="1" source="Y7fOjw2keFnCLbam0W64-3" target="Y7fOjw2keFnCLbam0W64-6">
          <mxGeometry relative="1" as="geometry" />
        </mxCell>
        <mxCell id="Y7fOjw2keFnCLbam0W64-3" value="" style="shape=image;html=1;verticalAlign=top;verticalLabelPosition=bottom;labelBackgroundColor=#ffffff;imageAspect=0;aspect=fixed;image=https://cdn3.iconfinder.com/data/icons/free-google-glass-icon-set/128/Boss_Google_Glasses.png" vertex="1" parent="1">
          <mxGeometry x="189" y="240" width="90" height="90" as="geometry" />
        </mxCell>
        <mxCell id="Y7fOjw2keFnCLbam0W64-11" style="edgeStyle=orthogonalEdgeStyle;rounded=0;orthogonalLoop=1;jettySize=auto;html=1;" edge="1" parent="1" source="Y7fOjw2keFnCLbam0W64-6" target="Y7fOjw2keFnCLbam0W64-10">
          <mxGeometry relative="1" as="geometry" />
        </mxCell>
        <mxCell id="Y7fOjw2keFnCLbam0W64-6" value="Warehouse" style="outlineConnect=0;fontColor=#232F3E;gradientColor=none;fillColor=#BC1356;strokeColor=none;dashed=0;verticalLabelPosition=bottom;verticalAlign=top;align=center;html=1;fontSize=12;fontStyle=0;aspect=fixed;pointerEvents=1;shape=mxgraph.aws4.inventory;" vertex="1" parent="1">
          <mxGeometry x="347" y="187" width="78" height="78" as="geometry" />
        </mxCell>
        <mxCell id="Y7fOjw2keFnCLbam0W64-23" style="edgeStyle=orthogonalEdgeStyle;rounded=0;orthogonalLoop=1;jettySize=auto;html=1;" edge="1" parent="1" source="Y7fOjw2keFnCLbam0W64-10" target="Y7fOjw2keFnCLbam0W64-12">
          <mxGeometry relative="1" as="geometry" />
        </mxCell>
        <mxCell id="Y7fOjw2keFnCLbam0W64-10" value="Stock Visuals" style="shape=image;html=1;verticalAlign=top;verticalLabelPosition=bottom;labelBackgroundColor=#ffffff;imageAspect=0;aspect=fixed;image=https://cdn4.iconfinder.com/data/icons/essential-app-1/16/mobile-phone-smart-screen-128.png" vertex="1" parent="1">
          <mxGeometry x="449" y="135.5" width="179" height="179" as="geometry" />
        </mxCell>
        <mxCell id="Y7fOjw2keFnCLbam0W64-14" style="edgeStyle=orthogonalEdgeStyle;rounded=0;orthogonalLoop=1;jettySize=auto;html=1;" edge="1" parent="1" source="Y7fOjw2keFnCLbam0W64-12" target="Y7fOjw2keFnCLbam0W64-15">
          <mxGeometry relative="1" as="geometry">
            <mxPoint x="660" y="390" as="targetPoint" />
          </mxGeometry>
        </mxCell>
        <mxCell id="Y7fOjw2keFnCLbam0W64-12" value="Inventory Recognition Service" style="aspect=fixed;perimeter=ellipsePerimeter;html=1;align=center;shadow=0;dashed=0;fontColor=#4277BB;labelBackgroundColor=#ffffff;fontSize=12;spacingTop=3;image;image=img/lib/ibm/applications/visual_recognition.svg;" vertex="1" parent="1">
          <mxGeometry x="675" y="195" width="60" height="60" as="geometry" />
        </mxCell>
        <mxCell id="Y7fOjw2keFnCLbam0W64-17" style="edgeStyle=orthogonalEdgeStyle;rounded=0;orthogonalLoop=1;jettySize=auto;html=1;" edge="1" parent="1" source="Y7fOjw2keFnCLbam0W64-15" target="Y7fOjw2keFnCLbam0W64-18">
          <mxGeometry relative="1" as="geometry">
            <mxPoint x="690" y="250" as="targetPoint" />
          </mxGeometry>
        </mxCell>
        <mxCell id="Y7fOjw2keFnCLbam0W64-29" style="edgeStyle=orthogonalEdgeStyle;rounded=0;orthogonalLoop=1;jettySize=auto;html=1;entryX=0.5;entryY=1;entryDx=0;entryDy=0;" edge="1" parent="1" source="Y7fOjw2keFnCLbam0W64-15" target="Y7fOjw2keFnCLbam0W64-10">
          <mxGeometry relative="1" as="geometry">
            <Array as="points">
              <mxPoint x="830" y="380" />
              <mxPoint x="539" y="380" />
            </Array>
          </mxGeometry>
        </mxCell>
        <mxCell id="Y7fOjw2keFnCLbam0W64-30" value="Next Inventory Item" style="edgeLabel;html=1;align=center;verticalAlign=middle;resizable=0;points=[];" vertex="1" connectable="0" parent="Y7fOjw2keFnCLbam0W64-29">
          <mxGeometry x="0.0593" y="1" relative="1" as="geometry">
            <mxPoint x="-25" as="offset" />
          </mxGeometry>
        </mxCell>
        <mxCell id="Y7fOjw2keFnCLbam0W64-15" value="Stock Status" style="rhombus;whiteSpace=wrap;html=1;" vertex="1" parent="1">
          <mxGeometry x="790" y="185" width="80" height="80" as="geometry" />
        </mxCell>
        <mxCell id="Y7fOjw2keFnCLbam0W64-16" value="Order More" style="shape=image;html=1;verticalAlign=top;verticalLabelPosition=bottom;labelBackgroundColor=#ffffff;imageAspect=0;aspect=fixed;image=https://cdn3.iconfinder.com/data/icons/free-3d-glossy-interface-icon-set/64/Problem.png" vertex="1" parent="1">
          <mxGeometry x="890" y="195" width="30" height="30" as="geometry" />
        </mxCell>
        <mxCell id="Y7fOjw2keFnCLbam0W64-20" style="edgeStyle=orthogonalEdgeStyle;rounded=0;orthogonalLoop=1;jettySize=auto;html=1;" edge="1" parent="1" source="Y7fOjw2keFnCLbam0W64-18" target="Y7fOjw2keFnCLbam0W64-19">
          <mxGeometry relative="1" as="geometry" />
        </mxCell>
        <mxCell id="Y7fOjw2keFnCLbam0W64-18" value="Skylight Card &lt;br&gt;Order More" style="shape=image;html=1;verticalAlign=top;verticalLabelPosition=bottom;labelBackgroundColor=#ffffff;imageAspect=0;aspect=fixed;image=https://cdn3.iconfinder.com/data/icons/seo-marketing-19/32/SEO-13-128.png" vertex="1" parent="1">
          <mxGeometry x="940" y="187" width="74" height="74" as="geometry" />
        </mxCell>
        <mxCell id="Y7fOjw2keFnCLbam0W64-19" value="Order Call to Vendor" style="pointerEvents=1;shadow=0;dashed=0;html=1;strokeColor=none;fillColor=#505050;labelPosition=center;verticalLabelPosition=bottom;verticalAlign=top;outlineConnect=0;align=center;shape=mxgraph.office.communications.3rd_party_call_center_solution;" vertex="1" parent="1">
          <mxGeometry x="1060" y="174.5" width="98" height="101" as="geometry" />
        </mxCell>
        <mxCell id="Y7fOjw2keFnCLbam0W64-24" value="" style="shape=image;html=1;verticalAlign=top;verticalLabelPosition=bottom;labelBackgroundColor=#ffffff;imageAspect=0;aspect=fixed;image=https://cdn0.iconfinder.com/data/icons/containers/128/palet01.png" vertex="1" parent="1">
          <mxGeometry x="494.5" y="182" width="88" height="88" as="geometry" />
        </mxCell>
        <mxCell id="Y7fOjw2keFnCLbam0W64-25" value="Skylight View" style="text;html=1;strokeColor=none;fillColor=none;align=center;verticalAlign=middle;whiteSpace=wrap;rounded=0;" vertex="1" parent="1">
          <mxGeometry x="482.5" y="110" width="100" height="20" as="geometry" />
        </mxCell>
        <mxCell id="Y7fOjw2keFnCLbam0W64-27" value="Integration SDK" style="text;html=1;strokeColor=none;fillColor=none;align=center;verticalAlign=middle;whiteSpace=wrap;rounded=0;" vertex="1" parent="1">
          <mxGeometry x="700" y="162" width="160" height="20" as="geometry" />
        </mxCell>
        <mxCell id="Y7fOjw2keFnCLbam0W64-31" value="&lt;font style=&quot;font-size: 24px&quot;&gt;Operations Manager Automated Inventory Management Tool&amp;nbsp;&lt;/font&gt;" style="text;html=1;strokeColor=none;fillColor=none;align=center;verticalAlign=middle;whiteSpace=wrap;rounded=0;" vertex="1" parent="1">
          <mxGeometry x="40" y="30" width="660" height="20" as="geometry" />
        </mxCell>
      </root>
    </mxGraphModel>
  </diagram>
</mxfile>
